# xmcd
#
# Track frame offsets: 
#        150
#        12257
#        25492
#        39674
#        54347
#        65224
#        85870
#        91362
#        105754
#        123270
#        137641
#        150823
#        163755
#        174834
#        189861
#        206455
#        219261
#        233416
#        247778
#        264368
#        280907
#        295457
#        308661
#        316266
#
# Disc length: 4379 seconds
#
# Revision: 0
# Processed by: cddbd v1.5.2PL0 Copyright (c) Steve Scherf et al.
# Submitted via: ExactAudioCopy v0.99pb4
#
DISCID=30111918
DTITLE=Replacements - Boink!! Box Set Disc 3
DYEAR=2000
DGENRE=Ambient
TTITLE0=Nevermind
TTITLE1=Alex Chilton
TTITLE2=Red Red Wine
TTITLE3=Kick it in
TTITLE4=Valentine (instrumental)
TTITLE5=Run for the Country
TTITLE6=Goin' Out of My Head
TTITLE7=Trouble on the Way
TTITLE8=Make this Your Home
TTITLE9=Rock and Roll Ghost
TTITLE10=Ought to Get Love
TTITLE11=Kissin' in Action
TTITLE12=Kissin' in Action
TTITLE13=Only if We Must
TTITLE14=Someone Take the Wheel
TTITLE15=When it Began
TTITLE16=Nobody
TTITLE17=One Wink at a Time
TTITLE18=Someone Take the Wheel
TTITLE19=My Little Problem
TTITLE20=Sadly Beautiful
TTITLE21=Attitude
TTITLE22=Torture
TTITLE23=Happy Town
EXTD=
EXTT0=
EXTT1=
EXTT2=
EXTT3=
EXTT4=
EXTT5=
EXTT6=
EXTT7=
EXTT8=
EXTT9=
EXTT10=
EXTT11=
EXTT12=
EXTT13=
EXTT14=
EXTT15=
EXTT16=
EXTT17=
EXTT18=
EXTT19=
EXTT20=
EXTT21=
EXTT22=
EXTT23=
PLAYORDER=
